<svg width="40" height="40" viewBox="0 0 40 40" fill="none" xmlns="http://www.w3.org/2000/svg">
<g clip-path="url(#clip0_61_120)">
<path d="M19.9902 -0.0292969C20.069 -0.0315125 20.1477 -0.033728 20.2289 -0.0360107C20.8312 0.0544207 21.2629 0.610251 21.6757 1.01898C21.7456 1.08797 21.8155 1.15696 21.8875 1.22803C22.0347 1.3738 22.1817 1.51975 22.3285 1.66597C22.5155 1.85214 22.704 2.0368 22.8927 2.22116C23.074 2.39882 23.2537 2.57816 23.4335 2.75726C23.5009 2.82272 23.5683 2.88817 23.6377 2.95561C24.0144 3.33509 24.2997 3.67559 24.375 4.21875C24.3444 4.71145 24.1998 5.05129 23.8281 5.39062C23.4957 5.59943 23.2002 5.6493 22.8125 5.5957C22.3717 5.48618 22.1066 5.24138 21.7969 4.92187C21.7156 4.8403 21.6343 4.75886 21.5528 4.67751C21.4896 4.61441 21.4896 4.61441 21.4252 4.55004C21.3932 4.51806 21.3611 4.48608 21.3281 4.45312C21.3281 4.51463 21.328 4.57613 21.328 4.63949C21.3268 6.13662 21.3235 7.63372 21.3178 9.13083C21.3151 9.85483 21.3131 10.5788 21.3128 11.3028C21.3126 11.9339 21.311 12.565 21.3078 13.1961C21.3061 13.5302 21.3051 13.8643 21.3058 14.1984C21.3064 14.5131 21.3051 14.8277 21.3025 15.1424C21.3018 15.2577 21.3019 15.373 21.3026 15.4883C21.3089 16.5713 21.3089 16.5713 20.8594 17.0312C20.4727 17.31 20.0703 17.3306 19.6094 17.2656C19.1892 17.1245 18.9641 16.8645 18.75 16.4844C18.7103 16.2388 18.7103 16.2388 18.7094 15.9713C18.7084 15.8694 18.7073 15.7675 18.7062 15.6625C18.7065 15.5506 18.7069 15.4387 18.7073 15.3267C18.7067 15.2081 18.7058 15.0895 18.7049 14.9709C18.7027 14.6497 18.7025 14.3286 18.7025 14.0074C18.7023 13.6714 18.7003 13.3355 18.6985 12.9995C18.6953 12.3637 18.6937 11.7279 18.6927 11.0921C18.6915 10.3681 18.6884 9.64411 18.6853 8.92011C18.6789 7.43112 18.6746 5.94213 18.6719 4.45312C18.6084 4.51865 18.545 4.58417 18.4797 4.65168C18.3951 4.7379 18.3106 4.8241 18.226 4.91028C18.1635 4.97502 18.1635 4.97502 18.0998 5.04106C17.783 5.3624 17.4987 5.59621 17.0312 5.625C16.54 5.60044 16.1955 5.4463 15.8594 5.07812C15.6108 4.65294 15.5887 4.30122 15.7031 3.82812C15.9676 3.35549 16.3545 2.99799 16.7358 2.61841C16.8057 2.54835 16.8757 2.47828 16.9477 2.4061C17.0951 2.25856 17.2427 2.11119 17.3905 1.96407C17.5797 1.77582 17.7681 1.58687 17.9564 1.3977C18.1367 1.21666 18.3176 1.03621 18.4985 0.855713C18.566 0.787925 18.6335 0.720138 18.703 0.650296C18.7661 0.587692 18.8292 0.525088 18.8942 0.460586C18.9771 0.377873 18.9771 0.377873 19.0617 0.293488C19.3614 0.0316418 19.5952 -0.0242709 19.9902 -0.0292969Z" fill="#888888"/>
<path d="M20.6934 22.8613C21.021 23.1103 21.2228 23.3475 21.2897 23.7612C21.29 23.8495 21.2902 23.9378 21.2905 24.0287C21.2916 24.1306 21.2927 24.2325 21.2938 24.3375C21.2935 24.4494 21.2931 24.5613 21.2926 24.6733C21.2933 24.7919 21.2942 24.9105 21.2951 25.0291C21.2973 25.3503 21.2975 25.6714 21.2975 25.9926C21.2977 26.3286 21.2997 26.6645 21.3015 27.0005C21.3047 27.6363 21.3063 28.2721 21.3073 28.9079C21.3085 29.6319 21.3115 30.3559 21.3147 31.0799C21.3211 32.5689 21.3254 34.0579 21.3281 35.5469C21.3916 35.4813 21.455 35.4158 21.5203 35.3483C21.6049 35.2621 21.6894 35.1759 21.774 35.0897C21.8156 35.0466 21.8573 35.0034 21.9002 34.9589C22.217 34.6376 22.5013 34.4038 22.9688 34.375C23.46 34.3996 23.8045 34.5537 24.1406 34.9219C24.3494 35.2543 24.3993 35.5498 24.3457 35.9375C24.27 36.2229 24.1784 36.4044 23.9795 36.622C23.9305 36.6758 23.8815 36.7297 23.8309 36.7851C23.557 37.0745 23.2787 37.359 22.9971 37.641C22.9345 37.7039 22.8718 37.7668 22.8073 37.8316C22.6759 37.9634 22.5444 38.0951 22.4128 38.2267C22.2113 38.4284 22.0104 38.6307 21.8095 38.833C21.6814 38.9614 21.5531 39.0898 21.4249 39.2181C21.365 39.2786 21.3051 39.3391 21.2433 39.4014C21.1873 39.4572 21.1312 39.513 21.0734 39.5706C21.0244 39.6197 20.9754 39.6688 20.9249 39.7194C20.6321 39.9729 20.3934 40.0244 20.0098 40.0293C19.931 40.0315 19.8523 40.0337 19.7711 40.036C19.1688 39.9456 18.7371 39.3897 18.3243 38.981C18.2544 38.912 18.1845 38.843 18.1125 38.772C17.9653 38.6262 17.8183 38.4802 17.6715 38.334C17.4845 38.1479 17.296 37.9632 17.1072 37.7788C16.926 37.6012 16.7463 37.4218 16.5665 37.2427C16.4991 37.1773 16.4317 37.1118 16.3623 37.0444C15.9856 36.6649 15.7003 36.3244 15.625 35.7812C15.6556 35.2885 15.8002 34.9487 16.1719 34.6094C16.5043 34.4006 16.7998 34.3507 17.1875 34.4043C17.6283 34.5138 17.8934 34.7586 18.2031 35.0781C18.2844 35.1597 18.3657 35.2411 18.4472 35.3225C18.5103 35.3856 18.5103 35.3856 18.5748 35.45C18.6068 35.4819 18.6389 35.5139 18.6719 35.5469C18.6719 35.4854 18.672 35.4239 18.672 35.3605C18.6732 33.8634 18.6765 32.3663 18.6822 30.8692C18.6849 30.1452 18.6869 29.4212 18.6872 28.6972C18.6874 28.0661 18.689 27.435 18.6922 26.8039C18.6939 26.4698 18.6949 26.1357 18.6942 25.8016C18.6936 25.4869 18.6949 25.1723 18.6975 24.8576C18.6981 24.7423 18.6981 24.627 18.6974 24.5117C18.6911 23.4287 18.6911 23.4287 19.1406 22.9687C19.591 22.644 20.1971 22.6063 20.6934 22.8613Z" fill="#888888"/>
<path d="M36.4788 15.8896C36.5261 15.9328 36.5733 15.976 36.622 16.0205C36.7027 16.094 36.7027 16.094 36.7851 16.1691C37.0745 16.443 37.359 16.7213 37.641 17.0029C37.7353 17.0968 37.7353 17.0968 37.8316 17.1927C37.9634 17.3241 38.0951 17.4556 38.2267 17.5872C38.4284 17.7887 38.6307 17.9896 38.833 18.1905C38.9614 18.3187 39.0898 18.4469 39.2181 18.5751C39.3088 18.665 39.3088 18.665 39.4013 18.7567C39.4851 18.8408 39.4851 18.8408 39.5706 18.9266C39.6197 18.9756 39.6688 19.0246 39.7194 19.0751C39.9728 19.3679 40.0244 19.6066 40.0293 19.9902C40.0315 20.069 40.0337 20.1478 40.036 20.2289C39.9456 20.8313 39.3897 21.2629 38.981 21.6757C38.912 21.7456 38.843 21.8155 38.7719 21.8875C38.6262 22.0347 38.4802 22.1817 38.334 22.3285C38.1478 22.5155 37.9632 22.704 37.7788 22.8928C37.6012 23.0741 37.4218 23.2537 37.2427 23.4335C37.1773 23.5009 37.1118 23.5683 37.0444 23.6377C36.6649 24.0144 36.3244 24.2997 35.7812 24.375C35.2885 24.3444 34.9487 24.1998 34.6094 23.8281C34.4006 23.4957 34.3507 23.2002 34.4043 22.8125C34.5138 22.3717 34.7586 22.1066 35.0781 21.7969C35.1597 21.7156 35.2411 21.6343 35.3225 21.5528C35.3645 21.5107 35.4066 21.4686 35.4499 21.4252C35.4819 21.3932 35.5139 21.3611 35.5469 21.3281C35.4854 21.3281 35.4239 21.3281 35.3605 21.328C33.8634 21.3268 32.3663 21.3235 30.8692 21.3178C30.1452 21.3151 29.4212 21.3131 28.6972 21.3129C28.0661 21.3126 27.435 21.311 26.8039 21.3078C26.4698 21.3061 26.1357 21.3051 25.8016 21.3058C25.4869 21.3064 25.1723 21.3051 24.8576 21.3025C24.7423 21.3019 24.627 21.3019 24.5117 21.3026C23.4287 21.3089 23.4287 21.3089 22.9687 20.8594C22.69 20.4728 22.6693 20.0703 22.7344 19.6094C22.8755 19.1892 23.1355 18.9641 23.5156 18.75C23.7612 18.7103 23.7612 18.7103 24.0287 18.7095C24.1306 18.7084 24.2325 18.7073 24.3374 18.7062C24.4494 18.7065 24.5613 18.7069 24.6733 18.7074C24.7919 18.7067 24.9105 18.7059 25.0291 18.7049C25.3502 18.7027 25.6714 18.7025 25.9926 18.7026C26.3285 18.7023 26.6645 18.7003 27.0004 18.6985C27.6363 18.6953 28.2721 18.6937 28.9079 18.6927C29.6319 18.6915 30.3559 18.6885 31.0799 18.6853C32.5689 18.6789 34.0579 18.6747 35.5469 18.6719C35.4813 18.6085 35.4158 18.545 35.3483 18.4797C35.2621 18.3952 35.1759 18.3106 35.0897 18.226C35.0465 18.1844 35.0034 18.1427 34.9589 18.0998C34.6376 17.783 34.4038 17.4987 34.375 17.0313C34.3995 16.54 34.5537 16.1955 34.9219 15.8594C35.412 15.5515 36 15.5455 36.4788 15.8896Z" fill="#888888"/>
<path d="M5.18555 15.9503C5.48066 16.2736 5.6274 16.5481 5.62317 16.9919C5.54866 17.5309 5.30369 17.8361 4.92187 18.2062C4.8403 18.2874 4.75886 18.3688 4.67751 18.4503C4.61441 18.5134 4.61441 18.5134 4.55004 18.5779C4.51806 18.6099 4.48608 18.6419 4.45312 18.675C4.51463 18.675 4.57613 18.675 4.63949 18.6751C6.13662 18.6763 7.63372 18.6796 9.13083 18.6853C9.85483 18.688 10.5788 18.69 11.3028 18.6902C11.9339 18.6905 12.565 18.6921 13.1961 18.6953C13.5302 18.697 13.8643 18.698 14.1984 18.6973C14.5131 18.6967 14.8277 18.698 15.1424 18.7006C15.2577 18.7012 15.373 18.7012 15.4883 18.7005C16.5713 18.6942 16.5713 18.6942 17.0312 19.1437C17.31 19.5303 17.3306 19.9328 17.2656 20.3937C17.1245 20.8139 16.8645 21.039 16.4844 21.2531C16.2388 21.2928 16.2388 21.2928 15.9713 21.2936C15.8694 21.2947 15.7675 21.2958 15.6625 21.2969C15.5506 21.2966 15.4387 21.2962 15.3267 21.2957C15.2081 21.2964 15.0895 21.2972 14.9709 21.2982C14.6497 21.3004 14.3286 21.3006 14.0074 21.3005C13.6714 21.3008 13.3355 21.3028 12.9995 21.3046C12.3637 21.3078 11.7279 21.3094 11.0921 21.3104C10.3681 21.3116 9.64411 21.3146 8.92011 21.3178C7.43112 21.3242 5.94213 21.3284 4.45312 21.3312C4.51865 21.3946 4.58417 21.4581 4.65168 21.5234C4.7379 21.6079 4.8241 21.6925 4.91028 21.7771C4.97502 21.8395 4.97502 21.8395 5.04106 21.9033C5.3624 22.2201 5.59621 22.5044 5.625 22.9718C5.60044 23.4631 5.4463 23.8076 5.07812 24.1437C4.74567 24.3525 4.45016 24.4024 4.0625 24.3488C3.77708 24.2731 3.59556 24.1815 3.37795 23.9826C3.32415 23.9336 3.27034 23.8845 3.21491 23.834C2.92551 23.5601 2.64098 23.2818 2.35901 23.0002C2.2961 22.9376 2.2332 22.8749 2.16839 22.8104C2.03659 22.679 1.90489 22.5475 1.7733 22.4159C1.57162 22.2144 1.36932 22.0135 1.16699 21.8126C1.03858 21.6844 0.910198 21.5562 0.78186 21.4279C0.721398 21.368 0.660937 21.3081 0.598643 21.2464C0.514878 21.1623 0.514878 21.1623 0.42942 21.0765C0.380301 21.0275 0.331181 20.9785 0.280573 20.928C0.0271398 20.6352 -0.0244157 20.3965 -0.0292969 20.0128C-0.0315125 19.9341 -0.033728 19.8553 -0.0360107 19.7742C0.0544207 19.1718 0.610251 18.7402 1.01898 18.3274C1.08797 18.2575 1.15696 18.1876 1.22803 18.1156C1.3738 17.9684 1.51975 17.8213 1.66597 17.6746C1.85214 17.4876 2.0368 17.2991 2.22116 17.1103C2.39882 16.929 2.57816 16.7494 2.75726 16.5696C2.82272 16.5022 2.88817 16.4348 2.95561 16.3654C3.64139 15.6847 4.31844 15.4044 5.18555 15.9503Z" fill="#888888"/>
</g>
<defs>
<clipPath id="clip0_61_120">
<rect width="40" height="40" fill="white"/>
</clipPath>
</defs>
</svg>
