<svg width="256" height="256" viewBox="0 0 256 256" fill="none" xmlns="http://www.w3.org/2000/svg">
<path d="M148.5 10.5C149.418 10.9723 150.323 11.4712 151.215 11.9922C151.987 12.4408 151.987 12.4408 152.776 12.8984C153.324 13.2207 153.872 13.543 154.438 13.875C155.019 14.2138 155.6 14.5523 156.182 14.8906C157.671 15.7577 159.158 16.628 160.645 17.4992C161.951 18.2641 163.259 19.0266 164.567 19.7891C166.038 20.6472 167.51 21.5056 168.981 22.3649C172.626 24.4941 176.28 26.6098 179.938 28.7188C180.477 29.0301 181.017 29.3414 181.573 29.6621C184.848 31.5502 188.126 33.4336 191.406 35.314C193.019 36.2426 194.626 37.1806 196.233 38.1192C198.201 39.2651 200.182 40.3745 202.192 41.444C203.085 41.9218 203.971 42.4092 204.856 42.9004C205.967 43.5143 207.087 44.1111 208.217 44.6875C211.727 46.6678 211.727 46.6678 212.481 48.9627C212.644 51.1082 212.627 52.7582 211.198 54.4496C210.107 55.2288 209.026 55.8055 207.813 56.375C207.416 56.5864 207.019 56.7978 206.609 57.0156C203.766 58.5 203.766 58.5 202.5 58.5C202.501 59.0894 202.501 59.0894 202.502 59.6907C202.513 69.446 202.521 79.2013 202.526 88.9566C202.529 93.675 202.532 98.3934 202.538 103.112C202.567 127.413 202.44 151.703 202 176C202.394 176.155 202.787 176.311 203.193 176.47C204.275 176.909 205.248 177.375 206.258 177.955C206.716 178.218 206.716 178.218 207.184 178.485C207.65 178.756 207.65 178.756 208.125 179.031C208.444 179.213 208.762 179.395 209.09 179.583C211.43 180.93 211.43 180.93 212 181.5C212.395 183.418 212.457 185.091 212 187C210.506 188.593 208.692 189.444 206.75 190.406C205.637 191.005 204.525 191.604 203.412 192.203C202.841 192.502 202.271 192.8 201.682 193.107C199.128 194.463 196.645 195.934 194.156 197.406C193.16 197.988 192.163 198.57 191.166 199.15C187.381 201.361 183.6 203.578 179.819 205.796C175.233 208.486 170.643 211.169 166.049 213.846C162.112 216.141 158.181 218.444 154.25 220.75C149.784 223.37 145.316 225.986 140.844 228.594C140.358 228.877 139.872 229.16 139.372 229.452C136.925 230.879 134.477 232.304 132.027 233.727C131.286 234.158 131.286 234.158 130.529 234.598C129.538 235.174 128.547 235.749 127.554 236.323C124.864 237.885 122.206 239.487 119.572 241.143C119.001 241.498 118.43 241.853 117.858 242.208C116.766 242.889 115.679 243.579 114.598 244.277C114.105 244.583 113.613 244.888 113.106 245.203C112.674 245.478 112.242 245.753 111.798 246.036C110.013 246.674 109.207 246.264 107.5 245.5C106.582 245.028 105.677 244.529 104.785 244.008C104.27 243.709 103.755 243.41 103.225 243.102C102.676 242.779 102.128 242.457 101.563 242.125C100.981 241.786 100.4 241.448 99.8185 241.109C98.3294 240.242 96.8421 239.372 95.3554 238.501C94.0491 237.736 92.7414 236.973 91.4337 236.211C89.9621 235.353 88.4906 234.494 87.0196 233.635C83.3738 231.506 79.7202 229.39 76.0626 227.281C75.5229 226.97 74.9831 226.659 74.427 226.338C71.1518 224.45 67.874 222.566 64.5944 220.686C62.9817 219.757 61.3747 218.819 59.7677 217.881C57.7993 216.735 55.8184 215.626 53.808 214.556C52.9155 214.078 52.029 213.591 51.1438 213.1C50.0335 212.486 48.9134 211.889 47.7832 211.313C44.2736 209.332 44.2736 209.332 43.5194 207.037C43.3559 204.892 43.3736 203.242 44.8021 201.55C45.8931 200.771 46.9745 200.195 48.1876 199.625C48.5846 199.414 48.9817 199.202 49.3907 198.984C52.2342 197.5 52.2342 197.5 53.5001 197.5C53.6303 182.616 53.717 167.733 53.7431 152.849C53.7462 151.09 53.7497 149.332 53.7534 147.573C53.7541 147.223 53.7549 146.873 53.7556 146.512C53.7684 140.849 53.8111 135.187 53.865 129.524C53.9197 123.71 53.9413 117.896 53.9344 112.082C53.9315 108.817 53.9436 105.554 53.9914 102.289C54.036 99.2146 54.0406 96.1425 54.0147 93.0677C54.0123 91.941 54.0243 90.8141 54.0521 89.6877C54.3977 83.9941 54.3977 83.9941 52.1258 79.0448C50.0431 77.4137 47.7803 76.2893 45.3211 75.3356C44.5001 75 44.5001 75 44.0001 74.5C43.6048 72.5824 43.5429 70.9095 44.0001 69C45.4947 67.4066 47.3081 66.5565 49.2501 65.5938C50.363 64.9953 51.4757 64.3964 52.588 63.7969C53.4442 63.3493 53.4442 63.3493 54.3177 62.8926C56.8726 61.5371 59.3549 60.0656 61.8439 58.5938C62.8403 58.0118 63.837 57.4305 64.8341 56.8496C68.3088 54.821 71.7795 52.7856 75.2501 50.75C82.143 46.7071 89.0446 42.6792 95.9488 38.6558C102.507 34.8337 109.06 31.0023 115.606 27.1608C118.451 25.4919 121.297 23.8254 124.149 22.168C124.893 21.7349 124.893 21.7349 125.653 21.293C126.625 20.728 127.598 20.1642 128.572 19.6016C130.92 18.2391 133.25 16.8547 135.548 15.4098C136.409 14.8688 137.273 14.3316 138.136 13.7952C139.231 13.1129 140.32 12.4223 141.403 11.7224C141.895 11.417 142.387 11.1116 142.895 10.7969C143.326 10.522 143.758 10.2471 144.203 9.96388C145.988 9.32573 146.793 9.73629 148.5 10.5Z" fill="#BE7D5A"/>
<path d="M202.5 59C202.506 64.043 202.511 69.0861 202.516 74.1291C202.518 75.4087 202.519 76.6884 202.52 77.9681C202.531 88.1863 202.533 98.4045 202.517 108.623C202.516 109.564 202.515 110.506 202.514 111.448C202.513 111.913 202.512 112.379 202.512 112.858C202.51 113.795 202.509 114.733 202.508 115.67C202.505 118.006 202.501 120.341 202.497 122.677C202.482 133.232 202.507 143.783 202.65 154.336C202.687 157.399 202.704 160.461 202.718 163.524C202.73 165.766 202.756 168.006 202.817 170.248C203.152 182.793 203.152 182.793 201.282 185.564C199.456 187.256 197.411 188.001 195.047 188.669C193.451 189.174 192.131 190.033 190.723 190.926C190.206 191.234 189.69 191.541 189.158 191.858C188.632 192.173 188.105 192.488 187.562 192.812C183.082 195.482 178.585 198.12 174.062 200.719C169.425 203.385 164.8 206.073 160.187 208.781C159.882 208.961 159.576 209.14 159.261 209.325C158.648 209.685 158.035 210.045 157.421 210.405C157.121 210.582 156.821 210.758 156.512 210.939C156.213 211.115 155.915 211.29 155.608 211.47C152.742 213.152 149.871 214.827 147 216.5C142.889 218.896 138.782 221.298 134.679 223.705C133.757 224.246 132.836 224.785 131.915 225.325C131.308 225.681 130.701 226.037 130.094 226.393C129.795 226.568 129.496 226.743 129.188 226.923C127.41 227.965 125.633 229.01 123.857 230.056C122.489 230.861 121.119 231.665 119.75 232.469C119.255 232.761 118.759 233.054 118.249 233.355C117.79 233.624 117.332 233.893 116.859 234.17C116.462 234.404 116.065 234.638 115.655 234.879C114.464 235.519 113.258 236.007 112 236.5C111.749 220.623 111.554 204.747 111.438 188.868C111.424 186.991 111.41 185.114 111.396 183.238C111.393 182.864 111.39 182.49 111.387 182.105C111.339 176.065 111.252 170.025 111.151 163.985C111.048 157.782 110.987 151.579 110.965 145.375C110.95 141.55 110.902 137.727 110.813 133.903C110.748 130.965 110.741 128.028 110.756 125.089C110.753 123.887 110.731 122.686 110.689 121.485C110.441 114.081 110.441 114.081 112 111C114.706 108.211 118.185 106.607 121.706 105.076C123.39 104.326 124.922 103.428 126.496 102.471C127.476 101.907 128.457 101.344 129.437 100.781C133.633 98.3677 137.821 95.9426 142 93.5C146.705 90.7502 151.422 88.0228 156.144 85.3027C159.77 83.2133 163.387 81.1113 167 79C171.698 76.2543 176.408 73.5307 181.124 70.8148C185.453 68.3193 189.773 65.8057 194.087 63.2832C194.991 62.7549 195.895 62.2272 196.799 61.7004C197.56 61.2565 198.32 60.81 199.077 60.3601C201.391 59 201.391 59 202.5 59Z" fill="#DAA561"/>
<path d="M148.5 10.5C149.418 10.9723 150.323 11.4712 151.215 11.9922C151.987 12.4408 151.987 12.4408 152.775 12.8984C153.324 13.2207 153.872 13.543 154.438 13.875C155.019 14.2138 155.6 14.5523 156.182 14.8906C157.671 15.7577 159.158 16.628 160.645 17.4992C161.951 18.2641 163.259 19.0266 164.566 19.7891C166.038 20.6472 167.51 21.5056 168.981 22.3649C172.626 24.4941 176.28 26.6098 179.938 28.7188C180.477 29.0301 181.017 29.3414 181.573 29.6621C184.848 31.5502 188.126 33.4336 191.406 35.314C193.019 36.2426 194.626 37.1806 196.232 38.1191C198.201 39.2651 200.182 40.3745 202.192 41.444C203.085 41.9218 203.971 42.4092 204.856 42.9004C205.967 43.5143 207.087 44.1111 208.217 44.6875C211.743 46.6769 211.743 46.6769 212.461 48.9747C212.595 50.9956 212.609 52.7025 211.343 54.361C210.391 55.0606 209.45 55.5418 208.375 56.0313C207.993 56.2299 207.611 56.4286 207.217 56.6333C206.401 57.0567 205.58 57.4709 204.755 57.8762C202.707 58.894 200.718 60.0155 198.719 61.125C198.304 61.3514 197.89 61.5779 197.463 61.8112C193.137 64.1758 188.889 66.6701 184.637 69.1641C181.434 71.0423 178.218 72.8976 175 74.75C170.826 77.1541 166.659 79.5695 162.5 82C157.795 84.7497 153.078 87.4773 148.356 90.1973C144.238 92.5703 140.132 94.9613 136.029 97.3597C131.718 99.8782 127.394 102.374 123.061 104.855C120.723 106.198 118.397 107.547 116.119 108.99C115.775 109.207 115.431 109.423 115.076 109.646C114.205 110.199 113.34 110.763 112.477 111.328C110.653 112.158 109.926 111.97 108 111.5C106.581 110.828 106.581 110.828 105.102 109.965C104.547 109.644 103.991 109.323 103.419 108.993C102.821 108.641 102.223 108.289 101.625 107.938C101 107.574 100.374 107.211 99.7486 106.849C98.4606 106.102 97.1741 105.353 95.8887 104.602C93.5927 103.261 91.2873 101.936 88.982 100.612C84.311 97.9255 79.6527 95.2178 75.0001 92.5C62.1194 84.9537 62.1194 84.9537 49.0699 77.7057C48.6923 77.5012 48.3148 77.2967 47.9258 77.0859C47.6001 76.9111 47.2744 76.7363 46.9388 76.5562C44.1192 74.8857 44.1192 74.8857 43.6202 73.2701C43.5387 71.7124 43.573 70.5056 44.0001 69C45.5036 67.4132 47.3063 66.5574 49.2501 65.5938C50.363 64.9953 51.4756 64.3964 52.5879 63.7969C53.4442 63.3493 53.4442 63.3493 54.3177 62.8926C56.8725 61.5371 59.3548 60.0656 61.8438 58.5938C62.8402 58.0118 63.837 57.4305 64.834 56.8496C68.3087 54.8209 71.7795 52.7856 75.2501 50.75C82.1429 46.7071 89.0445 42.6792 95.9488 38.6558C102.507 34.8337 109.06 31.0023 115.606 27.1608C118.451 25.4919 121.297 23.8254 124.148 22.168C124.893 21.7349 124.893 21.7349 125.653 21.293C126.625 20.728 127.598 20.1642 128.572 19.6016C130.92 18.2391 133.25 16.8547 135.548 15.4098C136.409 14.8688 137.272 14.3316 138.136 13.7952C139.231 13.1129 140.32 12.4223 141.403 11.7224C141.895 11.417 142.387 11.1116 142.895 10.7969C143.326 10.522 143.758 10.2471 144.202 9.96388C145.988 9.32573 146.793 9.73629 148.5 10.5Z" fill="#4B5B74"/>
<path d="M197.5 98.5C198.338 99.338 198.064 100.363 198.069 101.482C198.068 102.005 198.068 102.005 198.066 102.539C198.067 102.9 198.067 103.261 198.068 103.634C198.068 104.404 198.067 105.174 198.065 105.944C198.063 107.099 198.065 108.255 198.068 109.41C198.071 111.263 198.045 113.114 198.008 114.966C198 115.941 198.031 116.916 198.063 117.891C198.066 121.895 198.066 121.895 196.558 123.506C195.216 124.399 193.871 125.077 192.406 125.75C191.342 126.293 190.279 126.837 189.217 127.383C188.676 127.651 188.135 127.92 187.578 128.196C185.216 129.4 182.956 130.756 180.688 132.125C179.776 132.667 178.864 133.209 177.951 133.75C177.478 134.031 177.005 134.312 176.517 134.602C173.673 136.286 170.821 137.955 167.969 139.625C167.352 139.986 166.735 140.348 166.118 140.709C163.326 142.345 160.533 143.981 157.74 145.616C156.222 146.504 154.705 147.393 153.187 148.281C152.738 148.545 152.738 148.545 152.279 148.813C147.895 151.381 143.523 153.967 139.156 156.563C134.548 159.3 129.923 162.008 125.281 164.688C124.454 165.165 124.454 165.165 123.611 165.653C119.426 168.062 119.426 168.062 117.5 169C116 168 116 168 115.739 167.035C115.706 166.641 115.673 166.246 115.639 165.84C115.601 165.392 115.563 164.944 115.524 164.483C114.443 147.216 114.443 147.216 116.951 142.841C119.566 140.354 122.824 139.294 126.199 138.174C129.069 137.1 131.595 135.5 134.191 133.897C135.706 132.969 137.242 132.078 138.777 131.184C139.397 130.82 140.017 130.457 140.636 130.093C140.944 129.913 141.251 129.733 141.568 129.547C141.875 129.366 142.183 129.186 142.5 129C144.969 127.552 147.437 126.104 149.906 124.656C150.209 124.479 150.512 124.301 150.824 124.118C155.363 121.457 159.906 118.803 164.452 116.154C167.768 114.221 171.081 112.282 174.392 110.34C175.622 109.618 176.853 108.898 178.084 108.178C180.782 106.6 183.478 105.018 186.155 103.406C186.998 102.898 187.843 102.394 188.688 101.89C189.726 101.269 190.762 100.644 191.795 100.013C192.255 99.7391 192.715 99.4655 193.189 99.1836C193.589 98.9418 193.989 98.7001 194.401 98.4509C195.688 97.9229 196.226 97.9898 197.5 98.5Z" fill="#E2E6EF"/>
<path d="M196.846 67.4548C197.227 67.6347 197.608 67.8147 198 68C198.029 71.7549 198.028 75.5088 198.004 79.2637C198 80.8381 198.021 82.4102 198.047 83.9844C198.043 84.8646 198.038 85.7448 198.031 86.625C198.052 87.2261 198.052 87.2261 198.073 87.8394C198.037 89.5378 197.924 90.578 196.692 91.8047C195.499 92.6259 194.276 93.3136 193 94C191.973 94.5986 190.946 95.1976 189.92 95.7969C189.068 96.2802 188.217 96.7634 187.364 97.2445C185.809 98.1223 184.257 99.0058 182.705 99.8887C182.391 100.067 182.077 100.246 181.754 100.429C178.802 102.108 175.868 103.816 172.938 105.531C168.8 107.952 164.654 110.358 160.5 112.75C154.816 116.024 149.147 119.323 143.484 122.633C141.991 123.505 140.497 124.377 139.004 125.248C138.508 125.538 138.011 125.827 137.5 126.126C136.508 126.704 135.515 127.281 134.522 127.858C131.882 129.391 129.257 130.946 126.648 132.531C126.101 132.861 125.553 133.19 124.988 133.529C123.932 134.165 122.88 134.806 121.832 135.455C121.359 135.738 120.886 136.021 120.398 136.313C119.983 136.566 119.567 136.82 119.138 137.082C118.763 137.22 118.387 137.358 118 137.5C117.34 137.17 116.68 136.84 116 136.5C116 128.745 116 120.99 116 113C117.877 111.917 119.754 110.834 121.688 109.719C122.323 109.352 122.958 108.986 123.612 108.608C126.519 106.931 129.427 105.254 132.336 103.578C138.06 100.28 143.777 96.9682 149.481 93.6347C153.693 91.1748 157.918 88.7374 162.145 86.3027C165.77 84.2133 169.387 82.1113 173 80C177.336 77.466 181.68 74.9464 186.031 72.4375C186.576 72.1236 187.12 71.8097 187.681 71.4863C188.684 70.9081 189.689 70.3322 190.696 69.7593C191.495 69.294 192.286 68.8131 193.06 68.3071C195.229 66.9086 195.229 66.9086 196.846 67.4548Z" fill="#E2E6EF"/>
<path d="M153.5 155.5C153.697 162.258 153.848 169.016 153.94 175.776C153.985 178.916 154.045 182.054 154.141 185.192C154.234 188.224 154.284 191.253 154.306 194.286C154.322 195.441 154.353 196.595 154.399 197.749C154.735 206.549 154.735 206.549 152.681 208.962C150.672 210.596 148.464 211.628 146.063 212.563C144.454 213.224 143.02 214.098 141.529 214.992C140.426 215.62 139.322 216.248 138.219 216.875C134.634 218.914 131.055 220.959 127.502 223.053C126.953 223.375 126.405 223.698 125.84 224.031C124.802 224.643 123.766 225.257 122.731 225.874C122.268 226.147 121.805 226.42 121.328 226.701C120.925 226.941 120.522 227.181 120.106 227.428C119.043 227.978 118.19 228.362 117 228.5C116 227.5 116 227.5 115.877 226.565C115.878 225.991 115.878 225.991 115.88 225.406C115.878 224.967 115.877 224.528 115.875 224.076C115.879 223.593 115.883 223.11 115.886 222.613C115.886 222.106 115.886 221.598 115.886 221.076C115.887 219.393 115.894 217.71 115.902 216.027C115.904 214.863 115.906 213.699 115.907 212.534C115.91 209.465 115.92 206.395 115.931 203.326C115.941 200.196 115.946 197.066 115.951 193.936C115.962 187.79 115.979 181.645 116 175.5C118.179 174.254 120.358 173.009 122.537 171.764C122.859 171.58 123.18 171.396 123.512 171.206C127.062 169.178 130.612 167.149 134.166 165.127C134.715 164.814 135.264 164.502 135.829 164.18C136.643 163.716 137.456 163.253 138.27 162.79C141.027 161.223 143.78 159.654 146.475 157.98C146.826 157.763 147.177 157.545 147.538 157.321C148.415 156.772 149.286 156.214 150.156 155.654C151.667 154.919 151.975 155.016 153.5 155.5Z" fill="#E2E6EF"/>
<path d="M198.5 130C198.5 147.16 198.5 164.32 198.5 182C194.375 184.31 190.25 186.62 186 189C178.396 193.392 178.396 193.392 170.873 197.92C170.369 198.227 169.866 198.534 169.347 198.85C168.386 199.438 167.429 200.032 166.476 200.633C166.048 200.893 165.62 201.154 165.18 201.422C164.619 201.771 164.619 201.771 164.046 202.128C163 202.5 163 202.5 161.935 202.023C161.626 201.851 161.318 201.678 161 201.5C160.744 194.833 160.549 188.168 160.43 181.497C160.373 178.399 160.295 175.304 160.17 172.207C160.05 169.214 159.985 166.225 159.956 163.23C159.936 162.092 159.897 160.954 159.837 159.817C159.473 152.586 159.473 152.586 161 149.5C163.691 146.716 167.177 145.125 170.682 143.592C172.463 142.792 174.095 141.831 175.768 140.826C177.145 140.04 178.524 139.257 179.903 138.474C183.003 136.716 186.096 134.952 189.154 133.123C189.879 132.694 189.879 132.694 190.618 132.257C191.517 131.724 192.412 131.185 193.303 130.639C193.698 130.406 194.093 130.173 194.5 129.934C194.84 129.728 195.181 129.522 195.531 129.31C196.5 129 196.5 129 198.5 130Z" fill="#E2E6EF"/>
<path d="M202 176C203.552 176.621 204.846 177.144 206.258 177.955C206.716 178.218 206.716 178.218 207.183 178.485C207.649 178.756 207.649 178.756 208.125 179.031C208.443 179.213 208.762 179.395 209.09 179.583C211.43 180.93 211.43 180.93 212 181.5C212.395 183.418 212.457 185.09 212 187C210.505 188.593 208.692 189.443 206.75 190.406C205.637 191.005 204.524 191.604 203.412 192.203C202.841 192.502 202.27 192.8 201.682 193.107C199.127 194.463 196.645 195.934 194.156 197.406C193.16 197.988 192.163 198.57 191.166 199.15C187.38 201.361 183.6 203.578 179.819 205.796C175.233 208.486 170.642 211.169 166.049 213.846C162.112 216.141 158.18 218.444 154.25 220.75C149.784 223.369 145.316 225.986 140.844 228.594C140.358 228.877 139.872 229.16 139.372 229.452C136.925 230.879 134.477 232.304 132.027 233.727C131.285 234.158 131.285 234.158 130.529 234.598C129.538 235.174 128.546 235.749 127.554 236.323C124.864 237.885 122.206 239.487 119.572 241.143C119.001 241.498 118.43 241.853 117.858 242.208C116.766 242.889 115.679 243.579 114.598 244.277C114.105 244.583 113.613 244.888 113.105 245.203C112.674 245.478 112.242 245.753 111.797 246.036C110.012 246.674 109.206 246.264 107.5 245.5C106.582 245.028 105.677 244.529 104.785 244.008C104.27 243.709 103.755 243.41 103.224 243.102C102.676 242.779 102.127 242.457 101.562 242.125C100.981 241.786 100.4 241.448 99.8182 241.109C98.3291 240.242 96.8419 239.372 95.3552 238.501C94.0489 237.736 92.7412 236.973 91.4335 236.211C89.9619 235.353 88.4903 234.494 87.0194 233.635C83.3735 231.506 79.72 229.39 76.0624 227.281C75.5226 226.97 74.9829 226.659 74.4268 226.338C71.1516 224.45 67.8737 222.566 64.5941 220.686C62.9814 219.757 61.3744 218.819 59.7675 217.881C57.799 216.735 55.8182 215.625 53.8078 214.556C52.9152 214.078 52.0287 213.591 51.1435 213.1C50.0332 212.486 48.9132 211.889 47.783 211.312C44.2734 209.332 44.2734 209.332 43.5192 207.037C43.3557 204.892 43.3733 203.242 44.8019 201.55C45.8928 200.771 46.9743 200.194 48.1874 199.625C48.5844 199.414 48.9814 199.202 49.3905 198.984C52.2339 197.5 52.2339 197.5 53.4999 197.5C53.4635 197.889 53.427 198.278 53.3895 198.678C53.3557 200.447 53.4651 201.809 53.9999 203.5C55.8241 205.243 57.9915 206.241 60.2499 207.312C60.8767 207.631 61.5023 207.952 62.1267 208.275C63.3593 208.912 64.596 209.538 65.8375 210.157C67.873 211.189 69.8308 212.317 71.7811 213.5C72.4434 213.895 73.1062 214.288 73.7694 214.682C74.1176 214.888 74.4658 215.095 74.8246 215.308C77.2794 216.754 79.7501 218.172 82.2186 219.594C82.7698 219.911 83.3209 220.229 83.8888 220.556C85.0215 221.209 86.1542 221.861 87.287 222.513C89.5468 223.815 91.8062 225.118 94.0643 226.422C95.1589 227.053 96.2553 227.68 97.3534 228.304C99.8641 229.736 102.329 231.195 104.734 232.799C105.157 233.071 105.579 233.344 106.015 233.625C106.789 234.127 107.553 234.648 108.301 235.19C109.414 235.9 110.191 236.309 111.5 236.5C113.542 235.834 115.213 234.673 117 233.5C118.067 232.889 119.138 232.284 120.213 231.686C121.361 231.031 122.509 230.375 123.656 229.719C123.96 229.545 124.264 229.371 124.577 229.192C129.512 226.37 134.415 223.5 139.303 220.598C142.12 218.925 144.95 217.274 147.781 215.625C152.275 213.008 156.764 210.382 161.25 207.75C167.661 203.99 174.079 200.242 180.5 196.5C182.058 195.592 183.617 194.684 185.175 193.775C186.191 193.183 187.206 192.591 188.222 191.999C190.523 190.659 192.82 189.313 195.107 187.949C195.702 187.596 195.702 187.596 196.309 187.235C197.04 186.799 197.771 186.361 198.501 185.921C200.889 184.5 200.889 184.5 202 184.5C202 181.695 202 178.89 202 176Z" fill="#1C2842"/>
<path d="M212 47.5C212.571 49.6741 212.688 51.3422 212 53.5C210.029 55.51 207.25 56.6504 204.755 57.8762C202.707 58.894 200.718 60.0155 198.719 61.125C198.097 61.4646 198.097 61.4646 197.463 61.8112C193.137 64.1757 188.889 66.6701 184.637 69.1641C181.434 71.0422 178.218 72.8976 175 74.75C170.826 77.1541 166.659 79.5695 162.5 82C157.795 84.7497 153.078 87.4772 148.355 90.1973C144.238 92.5703 140.132 94.9613 136.029 97.3597C131.718 99.8782 127.394 102.374 123.061 104.855C120.723 106.198 118.397 107.547 116.119 108.99C115.775 109.207 115.431 109.423 115.076 109.646C114.205 110.199 113.34 110.763 112.476 111.328C110.653 112.158 109.926 111.97 108 111.5C106.58 110.828 106.58 110.828 105.101 109.965C104.546 109.644 103.991 109.323 103.419 108.993C102.821 108.641 102.223 108.289 101.625 107.938C101 107.574 100.374 107.211 99.7484 106.849C98.4604 106.102 97.1739 105.353 95.8885 104.602C93.5926 103.261 91.2871 101.936 88.9818 100.612C84.3108 97.9255 79.6525 95.2177 74.9999 92.5C62.1192 84.9536 62.1192 84.9536 49.0697 77.7057C44.9321 75.4642 44.9321 75.4642 43.9999 74.5C43.8046 73.2598 43.8046 73.2598 43.8749 71.9062C43.8929 71.4557 43.911 71.0052 43.9296 70.541C43.9644 70.0257 43.9644 70.0257 43.9999 69.5C47.3257 70.7984 50.3293 72.5751 53.4061 74.375C53.9825 74.7102 54.559 75.0451 55.1356 75.3799C56.3315 76.0744 57.5268 76.7698 58.7218 77.4658C61.4762 79.0692 64.2385 80.6588 66.9999 82.25C68.0832 82.8749 69.1666 83.4999 70.2499 84.125C70.7861 84.4344 71.3224 84.7438 71.8749 85.0625C73.4999 86 75.1249 86.9375 76.7499 87.875C77.2864 88.1845 77.8229 88.4941 78.3757 88.813C79.4562 89.4364 80.5367 90.0597 81.6172 90.6831C84.369 92.2707 87.1209 93.8582 89.8729 95.4453C90.4281 95.7656 90.9832 96.086 91.5552 96.416C92.6522 97.0485 93.7498 97.68 94.8479 98.3105C97.3596 99.7545 99.8611 101.211 102.34 102.711C102.776 102.972 103.212 103.233 103.661 103.502C104.466 103.986 105.267 104.475 106.064 104.97C106.417 105.181 106.771 105.392 107.135 105.609C107.437 105.795 107.739 105.98 108.05 106.171C109.385 106.634 110.156 106.409 111.5 106C112.819 105.369 112.819 105.369 114.166 104.557C114.682 104.256 115.199 103.955 115.731 103.646C116.284 103.319 116.837 102.993 117.406 102.656C117.991 102.314 118.575 101.973 119.16 101.632C120.361 100.93 121.561 100.227 122.76 99.5222C124.342 98.5917 125.928 97.6669 127.516 96.7441C133.245 93.4122 138.962 90.0583 144.679 86.7052C151.262 82.844 157.854 78.9984 164.449 75.1558C171.005 71.3347 177.556 67.5043 184.101 63.6641C188.476 61.0977 192.858 58.5441 197.242 55.9939C201.021 53.7911 204.774 51.548 208.512 49.2767C208.899 49.0423 209.286 48.8079 209.685 48.5664C210.025 48.3596 210.365 48.1528 210.716 47.9397C211.5 47.5 211.5 47.5 212 47.5Z" fill="#1F2A43"/>
<path d="M202 176C204.011 176.804 205.756 177.648 207.625 178.719C208.154 179.017 208.682 179.316 209.227 179.623C210.5 180.5 210.5 180.5 211 182C207.832 184.184 204.581 186.133 201.219 188C197.155 190.276 193.113 192.584 189.094 194.938C184.904 197.39 180.707 199.828 176.5 202.25C172.326 204.654 168.159 207.069 164 209.5C159.295 212.25 154.578 214.977 149.855 217.697C146.23 219.787 142.613 221.889 139 224C134.244 226.779 129.481 229.544 124.703 232.285C122.173 233.738 119.652 235.202 117.156 236.713C116.721 236.974 116.285 237.235 115.837 237.504C115.033 237.986 114.232 238.475 113.436 238.97C113.083 239.181 112.729 239.392 112.365 239.609C112.063 239.795 111.761 239.98 111.45 240.171C110.115 240.634 109.344 240.409 108 240C106.713 239.366 106.713 239.366 105.334 238.557C104.817 238.256 104.301 237.955 103.769 237.646C103.216 237.319 102.663 236.993 102.094 236.656C101.51 236.315 100.927 235.974 100.343 235.634C99.143 234.933 97.9444 234.231 96.7468 233.527C94.6543 232.296 92.5571 231.074 90.4598 229.851C89.4795 229.28 88.4995 228.708 87.5197 228.135C83.8738 226.006 80.2202 223.89 76.5625 221.781C76.0227 221.47 75.483 221.159 74.9269 220.838C72.1957 219.263 69.4631 217.692 66.7285 216.123C61.1111 212.898 55.509 209.647 49.9375 206.344C49.1186 205.863 49.1186 205.863 48.2831 205.373C47.7862 205.077 47.2893 204.78 46.7773 204.475C46.3364 204.213 45.8955 203.952 45.4412 203.683C44.9753 203.345 44.9753 203.345 44.5 203C44.5 202.67 44.5 202.34 44.5 202C45.8111 201.247 47.1237 200.498 48.4375 199.75C48.8107 199.535 49.1839 199.321 49.5684 199.1C49.9261 198.897 50.2838 198.694 50.6523 198.484C51.1472 198.202 51.1472 198.202 51.6521 197.913C52.5 197.5 52.5 197.5 53.5 197.5C53.4636 197.889 53.4272 198.278 53.3896 198.678C53.3558 200.447 53.4652 201.809 54 203.5C55.8242 205.243 57.9917 206.241 60.25 207.312C60.8769 207.631 61.5025 207.952 62.1268 208.275C63.3594 208.912 64.5961 209.538 65.8376 210.157C67.8732 211.189 69.8309 212.317 71.7812 213.5C72.4436 213.895 73.1063 214.288 73.7695 214.682C74.1177 214.888 74.4659 215.095 74.8247 215.308C77.2795 216.754 79.7503 218.172 82.2188 219.594C82.7699 219.911 83.3211 220.229 83.8889 220.556C85.0216 221.209 86.1543 221.861 87.2871 222.513C89.547 223.815 91.8063 225.118 94.0645 226.422C95.1591 227.053 96.2554 227.68 97.3535 228.304C99.8642 229.736 102.329 231.195 104.734 232.799C105.157 233.071 105.579 233.344 106.015 233.625C106.789 234.127 107.553 234.648 108.301 235.19C109.414 235.9 110.191 236.309 111.5 236.5C113.542 235.834 115.213 234.673 117 233.5C118.067 232.889 119.138 232.284 120.213 231.686C121.361 231.031 122.509 230.375 123.656 229.719C123.96 229.545 124.264 229.371 124.577 229.192C129.512 226.37 134.415 223.5 139.303 220.598C142.12 218.925 144.95 217.274 147.781 215.625C152.275 213.008 156.764 210.382 161.25 207.75C167.661 203.99 174.079 200.242 180.5 196.5C182.058 195.592 183.617 194.684 185.175 193.775C186.191 193.183 187.207 192.591 188.223 191.999C190.523 190.659 192.82 189.313 195.107 187.949C195.702 187.596 195.702 187.596 196.309 187.235C197.041 186.799 197.771 186.361 198.501 185.921C200.889 184.5 200.889 184.5 202 184.5C202 181.695 202 178.89 202 176Z" fill="#4C5B73"/>
<path d="M44 202.5C44.4284 202.745 44.8569 202.99 45.2983 203.242C48.2947 204.955 51.2914 206.667 54.289 208.377C64.7095 214.324 75.1113 220.303 85.4688 226.359C88.6845 228.238 91.9089 230.101 95.1378 231.957C108.826 239.826 108.826 239.826 110 241C110.117 241.924 110.206 242.852 110.281 243.781C110.323 244.287 110.365 244.793 110.408 245.314C110.438 245.706 110.469 246.097 110.5 246.5C108.433 245.868 106.65 245.098 104.785 244.008C104.27 243.709 103.755 243.41 103.225 243.102C102.676 242.779 102.128 242.457 101.562 242.125C100.981 241.786 100.4 241.448 99.8183 241.109C98.3292 240.242 96.842 239.372 95.3553 238.501C94.049 237.736 92.7413 236.973 91.4336 236.211C89.9619 235.353 88.4904 234.494 87.0195 233.635C83.3736 231.506 79.7201 229.39 76.0625 227.281C75.5227 226.97 74.983 226.659 74.4268 226.338C71.1517 224.45 67.8738 222.566 64.5942 220.686C62.9815 219.757 61.3745 218.819 59.7675 217.881C57.7991 216.735 55.8183 215.625 53.8079 214.556C52.9153 214.078 52.0288 213.591 51.1436 213.1C50.0333 212.486 48.9133 211.889 47.783 211.312C46.2905 210.47 45.1428 209.779 44 208.5C43.5572 206.424 43.6632 204.586 44 202.5Z" fill="#111D33"/>
<path d="M43.9999 69.5C47.3257 70.7984 50.3293 72.5751 53.4061 74.375C53.9825 74.7102 54.559 75.0451 55.1356 75.3799C56.3315 76.0744 57.5268 76.7698 58.7218 77.4658C61.4762 79.0692 64.2385 80.6588 66.9999 82.25C68.0832 82.8749 69.1666 83.4999 70.2499 84.125C71.0543 84.5891 71.0543 84.5891 71.8749 85.0625C73.4999 86 75.1249 86.9375 76.7499 87.875C77.2864 88.1845 77.8229 88.494 78.3756 88.8129C79.4566 89.4365 80.5375 90.0603 81.6183 90.6842C84.3624 92.268 87.1078 93.8498 89.8553 95.4277C95.0188 98.3954 100.172 101.376 105.281 104.438C105.915 104.817 105.915 104.817 106.562 105.204C109.435 106.935 109.435 106.935 110 107.5C110.036 108.26 110.042 109.021 110.031 109.781C110.027 110.194 110.022 110.608 110.017 111.033C110.012 111.352 110.006 111.671 110 112C107.945 111.371 106.173 110.61 104.32 109.525C103.81 109.229 103.3 108.932 102.775 108.627C102.23 108.307 101.686 107.986 101.125 107.656C100.547 107.319 99.969 106.982 99.3907 106.646C98.19 105.946 96.99 105.246 95.7904 104.544C93.0137 102.923 90.2246 101.322 87.4374 99.7188C83.2843 97.3248 79.1389 94.9182 74.9999 92.5C62.1193 84.9536 62.1193 84.9536 49.0697 77.7057C44.9321 75.4642 44.9321 75.4642 43.9999 74.5C43.8046 73.2598 43.8046 73.2598 43.8749 71.9062C43.8929 71.4557 43.911 71.0052 43.9296 70.541C43.9644 70.0257 43.9644 70.0257 43.9999 69.5Z" fill="#131E34"/>
<path d="M197.5 98.5C198 99 198 99 198.057 100.617C198.057 101.334 198.054 102.051 198.049 102.768C198.048 103.333 198.048 103.333 198.047 103.909C198.044 105.116 198.038 106.324 198.031 107.531C198.029 108.348 198.026 109.165 198.024 109.981C198.019 111.988 198.01 113.994 198 116C197.835 116 197.67 116 197.5 116C197.335 110.72 197.17 105.44 197 100C190.328 103.74 183.707 107.542 177.136 111.455C172.706 114.09 168.25 116.677 163.782 119.247C160.16 121.33 156.545 123.424 152.938 125.531C152.446 125.819 151.954 126.106 151.447 126.402C149.964 127.268 148.482 128.134 147 129C122.552 143.29 122.552 143.29 121.066 143.856C120.015 144.305 119.307 144.686 118.5 145.5C117.975 147.271 118.023 149 118.049 150.836C118.043 151.355 118.037 151.874 118.03 152.408C118.014 154.064 118.023 155.719 118.031 157.375C118.025 158.498 118.017 159.621 118.007 160.744C117.986 163.496 117.986 166.248 118 169C117.34 168.67 116.68 168.34 116 168C114.078 147.886 114.078 147.886 116.944 142.837C119.56 140.352 122.826 139.294 126.199 138.174C129.069 137.1 131.595 135.5 134.191 133.897C135.706 132.969 137.243 132.078 138.777 131.184C139.397 130.82 140.017 130.457 140.636 130.093C140.944 129.913 141.251 129.733 141.568 129.547C141.875 129.366 142.183 129.186 142.5 129C144.969 127.552 147.437 126.104 149.906 124.656C150.209 124.479 150.512 124.301 150.824 124.118C155.363 121.457 159.906 118.803 164.452 116.154C167.768 114.221 171.081 112.282 174.392 110.34C175.622 109.618 176.853 108.898 178.084 108.178C180.782 106.6 183.478 105.018 186.155 103.406C186.998 102.898 187.843 102.394 188.688 101.89C189.726 101.269 190.762 100.644 191.795 100.013C192.255 99.7391 192.715 99.4655 193.189 99.1836C193.589 98.9418 193.989 98.7001 194.402 98.4509C195.688 97.9229 196.226 97.9898 197.5 98.5Z" fill="#C9CCDC"/>
<path d="M195.5 67C196.325 67.33 197.15 67.66 198 68C198 72.29 198 76.58 198 81C197.835 81 197.67 81 197.5 81C197.335 77.04 197.17 73.08 197 69C190.334 72.7048 183.695 76.446 177.116 80.3041C173.28 82.5516 169.425 84.7667 165.562 86.9688C159.4 90.4828 153.251 94.0212 147.109 97.5706C143.874 99.4394 140.637 101.306 137.401 103.172C134.852 104.643 132.303 106.114 129.755 107.586C128.545 108.285 127.335 108.984 126.125 109.682C125.266 110.178 124.407 110.675 123.549 111.171C123.033 111.469 122.516 111.767 121.984 112.074C121.528 112.338 121.071 112.602 120.601 112.874C119.91 113.267 119.211 113.645 118.5 114C118.335 121.755 118.17 129.51 118 137.5C117.34 137.17 116.68 136.84 116 136.5C116 128.745 116 120.99 116 113C117.877 111.917 119.754 110.834 121.688 109.719C122.323 109.352 122.958 108.986 123.612 108.608C126.519 106.931 129.427 105.254 132.336 103.578C138.06 100.28 143.777 96.9682 149.481 93.6346C153.693 91.1747 157.918 88.7374 162.145 86.3027C165.77 84.2133 169.387 82.1113 173 80C177.336 77.466 181.68 74.9464 186.031 72.4375C186.576 72.1236 187.12 71.8097 187.681 71.4863C188.684 70.9081 189.689 70.3322 190.696 69.7593C191.495 69.2939 192.286 68.8131 193.06 68.3071C193.967 67.7227 193.967 67.7227 195.5 67Z" fill="#C9CCDC"/>
<path d="M152.687 155.143C152.956 155.261 153.224 155.378 153.5 155.5C153.5 155.83 153.5 156.16 153.5 156.5C151.625 157.584 149.75 158.667 147.875 159.75C147.587 159.916 147.299 160.082 147.003 160.254C143.601 162.218 140.196 164.176 136.783 166.121C136.481 166.293 136.178 166.466 135.867 166.643C134.665 167.328 133.463 168.013 132.261 168.697C128.216 171.001 124.204 173.347 120.246 175.797C119 176.5 119 176.5 118 176.5C118.165 193.66 118.33 210.82 118.5 228.5C116.5 228 116.5 228 116 227.5C115.952 226.823 115.939 226.144 115.94 225.466C115.939 225.028 115.938 224.589 115.938 224.138C115.94 223.653 115.941 223.169 115.943 222.67C115.943 222.163 115.943 221.655 115.943 221.133C115.943 219.447 115.947 217.762 115.951 216.076C115.952 214.911 115.953 213.746 115.953 212.581C115.955 209.507 115.96 206.434 115.966 203.36C115.971 200.227 115.973 197.093 115.976 193.96C115.981 187.807 115.989 181.653 116 175.5C118.179 174.254 120.358 173.009 122.537 171.764C122.859 171.58 123.181 171.396 123.512 171.207C127.062 169.178 130.612 167.149 134.166 165.127C134.715 164.814 135.264 164.502 135.829 164.18C136.643 163.716 137.456 163.253 138.27 162.79C141.027 161.223 143.78 159.654 146.475 157.98C146.826 157.763 147.177 157.545 147.538 157.321C148.415 156.772 149.286 156.214 150.156 155.654C151.5 155 151.5 155 152.687 155.143Z" fill="#C8CCDD"/>
<path d="M197.625 129.442C197.914 129.626 198.202 129.81 198.5 130C196.982 131.191 195.411 132.163 193.734 133.115C193.181 133.43 192.627 133.746 192.056 134.071C191.454 134.412 190.852 134.753 190.25 135.094C189.628 135.448 189.005 135.802 188.383 136.156C187.083 136.896 185.783 137.635 184.483 138.373C181.599 140.011 178.718 141.654 175.838 143.299C174.961 143.799 174.085 144.298 173.208 144.797C170.264 146.477 167.344 148.184 164.465 149.973C163.5 150.5 163.5 150.5 162.5 150.5C162.665 167.66 162.83 184.82 163 202.5C162.34 202.17 161.68 201.84 161 201.5C160.744 194.833 160.549 188.168 160.43 181.497C160.373 178.399 160.295 175.304 160.17 172.207C160.05 169.214 159.985 166.225 159.956 163.23C159.936 162.092 159.897 160.954 159.837 159.817C159.473 152.586 159.473 152.586 161 149.5C163.691 146.716 167.177 145.125 170.682 143.592C172.463 142.792 174.095 141.831 175.768 140.826C177.145 140.04 178.524 139.257 179.903 138.474C183.003 136.716 186.096 134.952 189.154 133.123C189.879 132.694 189.879 132.694 190.618 132.257C191.517 131.724 192.412 131.185 193.303 130.639C193.698 130.406 194.093 130.173 194.5 129.934C194.84 129.728 195.181 129.522 195.531 129.31C196.5 129 196.5 129 197.625 129.442Z" fill="#B0B8CE"/>
<path d="M151 174.5C151 182.75 151 191 151 199.5C148.5 200 148.5 200 147 199C146.858 198.007 146.858 198.007 146.922 196.775C146.942 196.315 146.962 195.854 146.983 195.38C147.012 194.882 147.042 194.384 147.072 193.871C147.097 193.362 147.121 192.853 147.146 192.328C147.226 190.698 147.316 189.068 147.406 187.438C147.462 186.334 147.517 185.231 147.571 184.127C147.706 181.418 147.85 178.709 148 176C147.67 176 147.34 176 147 176C147 175.505 147 175.01 147 174.5C148 174 148 174 151 174.5Z" fill="#1F2B40"/>
<path d="M169 163.5C169.5 164 169.5 164 169.56 165.009C169.558 165.674 169.558 165.674 169.557 166.352C169.557 166.852 169.557 167.353 169.557 167.868C169.554 168.413 169.551 168.957 169.549 169.518C169.548 170.072 169.547 170.626 169.547 171.197C169.544 172.975 169.538 174.753 169.531 176.531C169.529 177.733 169.526 178.936 169.524 180.138C169.519 183.092 169.511 186.046 169.5 189C168.344 189.313 168.344 189.313 167 189.5C166.505 189.17 166.01 188.84 165.5 188.5C165.581 188.181 165.662 187.862 165.746 187.533C166.083 185.502 166.071 183.524 166.066 181.469C166.067 181.034 166.067 180.6 166.068 180.152C166.068 179.236 166.067 178.32 166.065 177.404C166.063 176.005 166.065 174.606 166.068 173.207C166.068 172.315 166.067 171.423 166.066 170.531C166.067 170.115 166.068 169.698 166.069 169.268C166.061 167.279 165.994 165.442 165.5 163.5C166.842 162.829 167.576 163.135 169 163.5Z" fill="#131F35"/>
<path d="M116 175.5C116.742 175.995 116.742 175.995 117.5 176.5C117.685 177.427 117.685 177.427 117.68 178.575C117.682 179.01 117.684 179.445 117.687 179.893C117.681 180.371 117.676 180.849 117.67 181.341C117.67 181.844 117.671 182.346 117.671 182.864C117.67 184.53 117.658 186.197 117.646 187.863C117.644 189.016 117.642 190.17 117.64 191.323C117.634 194.363 117.62 197.402 117.603 200.442C117.588 203.542 117.581 206.642 117.573 209.742C117.557 215.828 117.531 221.914 117.5 228C117.83 228.165 118.16 228.33 118.5 228.5C116.562 228.062 116.562 228.062 116 227.5C115.952 226.823 115.939 226.144 115.94 225.466C115.939 225.028 115.938 224.589 115.938 224.138C115.94 223.653 115.941 223.169 115.943 222.67C115.943 222.163 115.943 221.655 115.943 221.133C115.943 219.447 115.947 217.762 115.951 216.076C115.952 214.911 115.953 213.746 115.953 212.581C115.955 209.507 115.96 206.434 115.966 203.36C115.971 200.227 115.973 197.093 115.976 193.96C115.981 187.807 115.989 181.653 116 175.5Z" fill="#B2B7C9"/>
<path d="M197.701 129.394C197.964 129.594 198.228 129.794 198.5 130C196.982 131.191 195.411 132.163 193.734 133.115C193.181 133.431 192.627 133.746 192.056 134.071C191.454 134.412 190.852 134.753 190.25 135.094C189.628 135.448 189.005 135.802 188.383 136.156C187.083 136.896 185.783 137.635 184.483 138.373C181.599 140.011 178.718 141.654 175.838 143.299C174.961 143.799 174.085 144.298 173.208 144.797C172.664 145.108 172.119 145.418 171.559 145.738C170.782 146.179 170.782 146.179 169.99 146.629C169.007 147.204 168.035 147.799 167.077 148.414C166.64 148.693 166.204 148.973 165.754 149.262C165.188 149.638 165.188 149.638 164.612 150.022C163.213 150.624 162.436 150.424 161 150C162.192 148.683 163.459 147.872 164.998 146.994C165.508 146.702 166.018 146.409 166.543 146.108C167.096 145.794 167.649 145.48 168.219 145.156C169.095 144.655 169.971 144.153 170.847 143.652C171.77 143.125 172.693 142.599 173.616 142.073C175.488 141.007 177.359 139.938 179.229 138.867C185.435 135.316 185.435 135.316 187.827 133.963C189.03 133.27 190.217 132.565 191.399 131.84C191.715 131.65 192.031 131.46 192.356 131.264C192.965 130.896 193.571 130.523 194.172 130.142C196.233 128.913 196.233 128.913 197.701 129.394Z" fill="#C8CCDD"/>
<path d="M163.5 91C164.719 91.375 164.719 91.375 166 92C166.33 93.0391 166.33 93.0391 166.5 94C163.274 96.1982 159.99 98.272 156.625 100.25C156.165 100.531 155.706 100.812 155.232 101.102C154.787 101.362 154.342 101.622 153.883 101.891C153.485 102.128 153.086 102.366 152.676 102.61C151.5 103 151.5 103 150.132 102.694C149 102 149 102 148.594 100.938C148.563 100.628 148.532 100.319 148.5 100C148.767 99.9233 149.034 99.8465 149.31 99.7675C152.439 98.8049 155.15 97.4325 157.969 95.7812C158.393 95.5425 158.818 95.3037 159.255 95.0576C159.66 94.8227 160.065 94.5878 160.482 94.3457C160.847 94.1353 161.211 93.9249 161.586 93.7081C162.623 92.905 163.009 92.2028 163.5 91Z" fill="#26314A"/>
<path d="M163.5 122C164.719 122.375 164.719 122.375 166 123C166.33 124.039 166.33 124.039 166.5 125C163.274 127.198 159.99 129.272 156.625 131.25C156.165 131.531 155.706 131.812 155.232 132.102C154.787 132.362 154.342 132.622 153.883 132.891C153.485 133.128 153.086 133.366 152.676 133.61C151.5 134 151.5 134 150.132 133.694C149 133 149 133 148.594 131.938C148.563 131.628 148.532 131.319 148.5 131C148.767 130.923 149.034 130.847 149.31 130.767C152.439 129.805 155.15 128.432 157.969 126.781C158.393 126.542 158.818 126.304 159.255 126.058C159.66 125.823 160.065 125.588 160.482 125.346C160.847 125.135 161.211 124.925 161.586 124.708C162.623 123.905 163.009 123.203 163.5 122Z" fill="#243049"/>
<path d="M150.5 174.5C150.665 174.5 150.83 174.5 151 174.5C151 182.75 151 191 151 199.5C149.763 199.747 149.763 199.747 148.5 200C148.995 199.753 148.995 199.753 149.5 199.5C149.498 199.202 149.496 198.903 149.493 198.596C149.471 195.497 149.456 192.399 149.445 189.301C149.44 188.144 149.433 186.987 149.425 185.829C149.412 184.169 149.407 182.508 149.402 180.848C149.397 180.328 149.392 179.808 149.387 179.272C149.387 178.552 149.387 178.552 149.386 177.817C149.384 177.393 149.382 176.968 149.38 176.531C149.5 175.5 149.5 175.5 150.5 174.5Z" fill="#616F85"/>
<path d="M169 164C169.165 164 169.33 164 169.5 164C169.5 172.25 169.5 180.5 169.5 189C168.263 189.247 168.263 189.247 167 189.5C167.495 189.253 167.495 189.253 168 189C167.998 188.702 167.996 188.403 167.993 188.096C167.971 184.997 167.956 181.899 167.945 178.801C167.94 177.644 167.933 176.487 167.925 175.329C167.912 173.669 167.907 172.008 167.902 170.348C167.897 169.828 167.892 169.308 167.887 168.772C167.887 168.052 167.887 168.052 167.886 167.317C167.884 166.893 167.882 166.468 167.88 166.031C168 165 168 165 169 164Z" fill="#4C5C74"/>
<path d="M116 144.5C116.743 144.995 116.743 144.995 117.5 145.5C117.68 146.493 117.68 146.493 117.67 147.725C117.67 148.185 117.67 148.646 117.67 149.12C117.662 149.618 117.654 150.116 117.646 150.629C117.644 151.138 117.642 151.647 117.64 152.172C117.632 153.802 117.613 155.432 117.594 157.062C117.586 158.166 117.579 159.27 117.573 160.373C117.557 163.082 117.532 165.791 117.5 168.5C117.005 168.335 116.51 168.17 116 168C116 160.245 116 152.49 116 144.5Z" fill="#B2B7C9"/>
<path d="M116 113C116.743 113.495 116.743 113.495 117.5 114C117.68 114.993 117.68 114.993 117.67 116.225C117.67 116.685 117.67 117.146 117.67 117.62C117.662 118.118 117.654 118.616 117.646 119.129C117.644 119.638 117.642 120.147 117.64 120.672C117.632 122.302 117.613 123.932 117.594 125.562C117.586 126.666 117.579 127.77 117.573 128.873C117.557 131.582 117.532 134.291 117.5 137C117.005 136.835 116.51 136.67 116 136.5C116 128.745 116 120.99 116 113Z" fill="#B2B7C9"/>
<path d="M163.5 91C164.738 91.495 164.738 91.495 166 92C166 92.33 166 92.66 166 93C165.413 93.3369 165.413 93.3369 164.815 93.6805C163.367 94.512 161.92 95.3442 160.473 96.1769C159.846 96.5375 159.219 96.8979 158.592 97.2579C157.692 97.7747 156.792 98.2925 155.893 98.8105C155.351 99.1221 154.809 99.4337 154.25 99.7548C153.07 100.389 153.07 100.389 152.5 101C151.281 101.125 151.281 101.125 150 101C149.67 100.505 149.34 100.01 149 99.5C149.558 99.3904 150.116 99.2809 150.691 99.168C153.361 98.4984 155.582 97.2026 157.938 95.8125C158.364 95.5714 158.791 95.3304 159.23 95.082C159.841 94.7262 159.841 94.7262 160.465 94.3633C160.832 94.1497 161.199 93.9361 161.578 93.7161C162.618 92.9083 163.008 92.2082 163.5 91Z" fill="#4E5C74"/>
<path d="M161.5 124.5C161.995 124.83 162.49 125.16 163 125.5C160.505 127.22 157.965 128.864 155.375 130.438C154.888 130.735 154.4 131.033 153.898 131.34C152.429 132.033 151.598 132.27 150 132C149.67 131.505 149.34 131.01 149 130.5C149.567 130.388 150.134 130.276 150.719 130.16C153.252 129.527 155.294 128.302 157.5 126.938C157.887 126.704 158.275 126.47 158.674 126.229C159.619 125.657 160.561 125.081 161.5 124.5Z" fill="#4B5A72"/>
<path d="M150.5 174.5C150.335 174.83 150.17 175.16 150 175.5C149.941 176.271 149.912 177.044 149.897 177.817C149.887 178.297 149.877 178.778 149.867 179.272C149.859 179.792 149.85 180.312 149.842 180.848C149.831 181.379 149.821 181.91 149.81 182.458C149.778 184.159 149.748 185.861 149.719 187.563C149.697 188.714 149.675 189.866 149.653 191.018C149.6 193.845 149.549 196.672 149.5 199.5C149.335 199.5 149.17 199.5 149 199.5C148.835 191.58 148.67 183.66 148.5 175.5C148.17 175.335 147.84 175.17 147.5 175C147.335 175.33 147.17 175.66 147 176C147 175.505 147 175.01 147 174.5C148.333 173.833 149.083 174.165 150.5 174.5Z" fill="#2B384F"/>
<path d="M163.5 122C164.719 122.375 164.719 122.375 166 123C166.165 123.66 166.33 124.32 166.5 125C165.015 125.99 163.53 126.98 162 128C162 125.509 162.316 124.22 163.5 122Z" fill="#35425A"/>
<path d="M163.5 91C164.738 91.495 164.738 91.495 166 92C166 92.33 166 92.66 166 93C164.185 93.99 162.37 94.98 160.5 96C161 94 161 94 162.5 93C163.096 91.975 163.096 91.975 163.5 91Z" fill="#44536A"/>
<path d="M147.5 175C147.995 175.165 148.49 175.33 149 175.5C149 177.315 149 179.13 149 181C148.505 181.247 148.505 181.247 148 181.5C147.835 179.355 147.67 177.21 147.5 175Z" fill="#162238"/>
<path d="M153 129.5C153.165 129.995 153.33 130.49 153.5 131C152.5 132 152.5 132 151.25 132.156C150.837 132.105 150.425 132.053 150 132C149.67 131.505 149.34 131.01 149 130.5C150.32 130.17 151.64 129.84 153 129.5Z" fill="#516078"/>
<path d="M166.5 163C167.812 163.188 167.812 163.188 169 163.5C168.835 163.995 168.67 164.49 168.5 165C167.51 164.67 166.52 164.34 165.5 164C165.83 163.67 166.16 163.34 166.5 163Z" fill="#25314A"/>
</svg>
